<svg xmlns="http://www.w3.org/2000/svg" viewBox="0 0 461.98 372.8"><defs><style>.cls-1{fill-rule:evenodd;}</style></defs><g id="Ebene_2" data-name="Ebene 2"><g id="crown"><polygon class="cls-1" points="48.96 372.78 45.51 352.06 414.13 352.06 410.68 372.8 48.96 372.78"/><polygon class="cls-1" points="0 73.64 183.54 257.64 169.54 271.71 29.51 131.75 60.32 314.47 160.62 314.47 199.86 275.23 213.94 289.31 169.1 334.14 63.64 334.14 43.52 334.14 0 73.64"/><polygon class="cls-1" points="461.98 73.64 417.66 334.14 292.89 334.14 116.08 157.23 231.05 0 346.02 157.23 262.34 240.9 248.26 226.83 319.91 155.18 231.05 33.66 142.19 155.18 298.15 311.5 402.78 311.5 431.9 131.91 292.85 271.42 278.6 257.16 461.98 73.64"/><polygon class="cls-1" points="259.55 335.33 198.39 335.33 215.84 317.69 228.8 304.58 259.55 335.33"/></g></g></svg>